# xmcd
#
# Track frame offsets:
#	150
#	16296
#	29304
#	41430
#	55262
#	68615
#	80573
#	93654
#	106646
#	119613
#	131901
#	146220
#
# Disc length: 2140 seconds
#
# Revision: 0
# Processed by: cddbd v1.5.2PL0 Copyright (c) Steve Scherf et al.
# Submitted via: EasyCDDAExtractor 11.5.0.1
#
DISCID=a4085a0c
DTITLE=Pilita - Philippine Love Songs
DYEAR=1900
DGENRE=
TTITLE0=Dahil Sa Iyo
TTITLE1=Kay Hirap Ng Umibig
TTITLE2=Carinosa
TTITLE3=Lahat Ng Araw
TTITLE4=Hinahanap Kita
TTITLE5=Sapagka't Kami'y Tao Lamang
TTITLE6=Kapanray Ay Langit
TTITLE7=Irog Ako Ay Mahalin
TTITLE8=Rosas Pandan
TTITLE9=Lahay Ng Oras
TTITLE10=Sapagka't Ikaw Ay Akin
TTITLE11=Uihim Na Damdamin
EXTD=
EXTT0=
EXTT1=
EXTT2=
EXTT3=
EXTT4=
EXTT5=
EXTT6=
EXTT7=
EXTT8=
EXTT9=
EXTT10=
EXTT11=
PLAYORDER=
